<svg width="15" height="16" viewBox="0 0 15 16" fill="none" xmlns="http://www.w3.org/2000/svg">
<path d="M7.5 14.5289C8.78558 14.5289 10.0423 14.1348 11.1112 13.3966C12.1801 12.6583 13.0132 11.609 13.5052 10.3813C13.9972 9.15361 14.1259 7.8027 13.8751 6.4994C13.6243 5.19609 13.0052 3.99893 12.0962 3.0593C11.1871 2.11967 10.029 1.47978 8.76808 1.22053C7.50721 0.961289 6.20028 1.09434 5.01256 1.60287C3.82484 2.11139 2.80968 2.97255 2.09545 4.07743C1.38122 5.18232 1 6.48132 1 7.81016C1 8.92099 1.26 9.96761 1.72222 10.8911L1 14.5289L4.51939 13.7824C5.41205 14.2594 6.42605 14.5289 7.5 14.5289Z" stroke="#A8A8A8" stroke-linecap="round" stroke-linejoin="round"/>
</svg>
