<svg width="250" height="277" viewBox="0 0 250 277" fill="none" xmlns="http://www.w3.org/2000/svg">
<path d="M118.09 220.56H6.54356L0.439941 41.5557H111.986L118.09 220.56Z" fill="#407BFF"/>
<path d="M123.659 215.003H12.1129L6.00928 35.9983H117.556L123.659 215.003Z" fill="#407BFF"/>
<path opacity="0.3" d="M123.659 215.003H12.1129L6.00928 35.9983H117.556L123.659 215.003Z" fill="white"/>
<path d="M86.2934 109.655C98.2368 97.5319 97.7287 77.7085 85.1585 65.3782C72.5882 53.0479 52.7159 52.8799 40.7725 65.0031C28.829 77.1263 29.3372 96.9498 41.9074 109.28C54.4777 121.61 74.3499 121.778 86.2934 109.655Z" fill="#407BFF"/>
<path d="M89.4255 87.3397C89.589 91.6053 88.6561 95.8417 86.7154 99.6459C84.6236 103.745 81.4294 107.182 77.4904 109.571C73.5515 111.961 69.0236 113.208 64.414 113.175C59.6939 113.148 55.0637 111.884 50.9871 109.509C46.9105 107.135 43.5306 103.734 41.1857 99.6459C39.0022 95.8992 37.7823 91.6713 37.6351 87.3397C37.4902 83.981 38.0311 80.628 39.225 77.4843C40.4189 74.3407 42.2409 71.4721 44.5802 69.0528C46.9195 66.6335 49.7273 64.7141 52.833 63.4111C55.9388 62.1081 59.2776 61.4487 62.6466 61.4731C69.587 61.5221 76.2418 64.237 81.2286 69.0539C86.2154 73.8708 89.151 80.4195 89.4255 87.3397Z" fill="white"/>
<path opacity="0.6" d="M86.7155 99.6458C84.6237 103.745 81.4295 107.181 77.4906 109.571C73.5516 111.961 69.0237 113.208 64.4141 113.175C59.694 113.148 55.0638 111.884 50.9872 109.509C46.9106 107.135 43.5307 103.734 41.1858 99.6458C47.8257 95.1321 55.6807 92.7326 63.715 92.7637C71.8896 92.776 79.883 95.1677 86.7155 99.6458Z" fill="#407BFF"/>
<path opacity="0.6" d="M71.5976 86.705C75.9893 82.2472 75.8025 74.9579 71.1803 70.4239C66.5581 65.8899 59.2509 65.8282 54.8592 70.2861C50.4674 74.7439 50.6542 82.0332 55.2764 86.5671C59.8986 91.1011 67.2059 91.1628 71.5976 86.705Z" fill="#407BFF"/>
<path d="M101.256 150.18H30.0939L29.6147 136.071H100.769L101.256 150.18Z" fill="white"/>
<path d="M102.112 175.396H30.958L30.4709 161.287H101.633L102.112 175.396Z" fill="white"/>
<path d="M74.6496 163.231L57.5014 165.582C57.3376 165.602 57.1797 165.655 57.0376 165.738C56.8955 165.822 56.7722 165.933 56.6755 166.067C56.5788 166.2 56.5109 166.352 56.4759 166.513C56.4409 166.673 56.4397 166.84 56.4723 167.001L58.719 178.468C58.7911 178.805 58.9883 179.102 59.271 179.3C59.5537 179.498 59.9009 179.582 60.2429 179.534L77.3912 177.183C77.5551 177.163 77.7132 177.11 77.8557 177.027C77.9982 176.944 78.1219 176.832 78.2192 176.699C78.3165 176.566 78.3852 176.414 78.4212 176.253C78.4571 176.092 78.4595 175.926 78.4281 175.764L76.1736 164.297C76.1014 163.96 75.9042 163.663 75.6215 163.465C75.3388 163.267 74.9916 163.183 74.6496 163.231ZM69.7243 174.847L66.5822 175.263L66.268 171.563C65.9446 171.424 65.6598 171.208 65.4381 170.935C65.2165 170.662 65.0645 170.34 64.9954 169.995C64.9377 169.729 64.9365 169.453 64.992 169.186C65.0474 168.92 65.1582 168.667 65.3173 168.446C65.4764 168.224 65.6803 168.038 65.9157 167.9C66.1511 167.762 66.413 167.675 66.6843 167.644C67.2507 167.562 67.8269 167.699 68.2955 168.027C68.7641 168.354 69.0897 168.848 69.2059 169.407C69.2759 169.737 69.2568 170.079 69.1505 170.398C69.0442 170.718 68.8545 171.004 68.601 171.226L69.7243 174.847Z" fill="#407BFF"/>
<path d="M72.9606 162.611C72.6569 162.654 72.3484 162.579 72.0976 162.403C71.8467 162.227 71.6723 161.962 71.6095 161.663L71.3896 160.542C71.0756 159.012 70.2164 157.648 68.9712 156.703C67.726 155.757 66.1794 155.294 64.6182 155.4C63.8297 155.444 63.0599 155.656 62.3612 156.024C61.6625 156.391 61.0512 156.904 60.5689 157.528C60.0867 158.152 59.7448 158.872 59.5665 159.64C59.3883 160.407 59.3778 161.204 59.5358 161.976L59.7872 163.27C59.8152 163.413 59.8133 163.56 59.7815 163.703C59.7497 163.845 59.6887 163.98 59.6024 164.097C59.5161 164.215 59.4063 164.314 59.2799 164.387C59.1536 164.461 59.0134 164.507 58.8681 164.524C58.5644 164.566 58.2559 164.492 58.005 164.316C57.7542 164.14 57.5798 163.875 57.517 163.575L57.3049 162.478C57.0892 161.46 57.0821 160.409 57.284 159.389C57.4859 158.368 57.8927 157.399 58.4798 156.539C59.0668 155.68 59.8221 154.947 60.7002 154.386C61.5783 153.826 62.561 153.448 63.5892 153.276C65.8181 152.902 68.1058 153.398 69.9779 154.662C71.8499 155.926 73.1627 157.86 73.644 160.064L73.8954 161.357C73.9247 161.502 73.9232 161.651 73.891 161.795C73.8587 161.938 73.7965 162.074 73.7083 162.192C73.6201 162.311 73.508 162.409 73.3792 162.481C73.2504 162.553 73.1077 162.598 72.9606 162.611Z" fill="#407BFF"/>
<path d="M90.3682 195.156H44.053L43.7388 185.97H90.054L90.3682 195.156Z" fill="#407BFF"/>
<path d="M67.996 143.125C68.0098 143.46 67.9553 143.795 67.8358 144.108C67.7163 144.421 67.5342 144.707 67.3006 144.948C67.0671 145.19 66.7869 145.381 66.477 145.511C66.1671 145.641 65.8341 145.706 65.498 145.704C64.8055 145.7 64.1412 145.43 63.6436 144.95C63.146 144.469 62.8535 143.816 62.8272 143.125C62.8122 142.79 62.8659 142.455 62.985 142.141C63.1041 141.827 63.2862 141.541 63.52 141.299C63.7538 141.058 64.0344 140.867 64.3448 140.737C64.6552 140.608 64.9888 140.543 65.3252 140.546C66.017 140.552 66.6803 140.823 67.1775 141.303C67.6747 141.783 67.9678 142.435 67.996 143.125Z" fill="#263238"/>
<path d="M56.8885 143.125C56.9023 143.46 56.8478 143.795 56.7283 144.108C56.6088 144.422 56.4267 144.708 56.1932 144.949C55.9596 145.19 55.6794 145.381 55.3695 145.511C55.0596 145.641 54.7266 145.707 54.3905 145.704C53.6973 145.701 53.0321 145.431 52.5332 144.95C52.0343 144.47 51.7401 143.816 51.7118 143.125C51.698 142.79 51.7525 142.456 51.872 142.142C51.9915 141.829 52.1736 141.543 52.4072 141.302C52.6408 141.061 52.921 140.869 53.2308 140.74C53.5407 140.61 53.8738 140.544 54.2098 140.546C54.9031 140.55 55.5683 140.82 56.0672 141.3C56.5661 141.78 56.8602 142.434 56.8885 143.125Z" fill="#263238"/>
<path d="M45.7498 143.125C45.7648 143.461 45.711 143.795 45.5919 144.109C45.4728 144.423 45.2908 144.71 45.057 144.951C44.8232 145.192 44.5425 145.384 44.2321 145.513C43.9218 145.643 43.5882 145.708 43.2518 145.704C42.5599 145.699 41.8967 145.428 41.3995 144.948C40.9023 144.468 40.6092 143.815 40.581 143.125C40.5671 142.79 40.6216 142.456 40.7412 142.142C40.8607 141.829 41.0428 141.543 41.2763 141.302C41.5099 141.061 41.7901 140.869 42.1 140.74C42.4098 140.61 42.7429 140.544 43.079 140.546C43.7714 140.55 44.4358 140.82 44.9334 141.301C45.431 141.781 45.7235 142.435 45.7498 143.125Z" fill="#263238"/>
<path d="M79.1508 143.125C79.1658 143.462 79.1116 143.798 78.9916 144.113C78.8715 144.428 78.6881 144.715 78.4526 144.957C78.2171 145.198 77.9345 145.389 77.6223 145.518C77.31 145.646 76.9747 145.71 76.637 145.704C75.9452 145.699 75.2819 145.428 74.7847 144.948C74.2875 144.468 73.9944 143.815 73.9662 143.125C73.9524 142.79 74.0069 142.456 74.1264 142.142C74.2459 141.829 74.428 141.543 74.6616 141.302C74.8952 141.061 75.1754 140.869 75.4852 140.74C75.7951 140.61 76.1281 140.544 76.4642 140.546C77.1594 140.546 77.8277 140.814 78.3287 141.295C78.8297 141.776 79.1243 142.432 79.1508 143.125Z" fill="#263238"/>
<path d="M90.2896 143.125C90.3035 143.46 90.249 143.795 90.1294 144.108C90.0099 144.422 89.8278 144.708 89.5943 144.949C89.3607 145.19 89.0805 145.381 88.7706 145.511C88.4608 145.641 88.1277 145.707 87.7916 145.704C87.0984 145.701 86.4332 145.431 85.9343 144.95C85.4354 144.47 85.1412 143.816 85.1129 143.125C85.0991 142.79 85.1536 142.456 85.2731 142.142C85.3927 141.829 85.5747 141.543 85.8083 141.302C86.0419 141.061 86.3221 140.869 86.6319 140.74C86.9418 140.61 87.2749 140.544 87.611 140.546C88.3042 140.55 88.9694 140.82 89.4683 141.3C89.9672 141.78 90.2613 142.434 90.2896 143.125Z" fill="#263238"/>
<path d="M183.242 87.1045C184.287 88.7741 185.151 90.3809 186.054 92.0505C186.958 93.7201 187.759 95.3975 188.552 97.1141C190.171 100.59 191.511 104.189 192.559 107.876C192.692 108.339 192.802 108.832 192.92 109.311L193.093 110.04L193.179 110.4L193.281 110.996C193.46 112.345 193.375 113.716 193.03 115.033C192.495 117.087 191.673 119.055 190.587 120.88C188.648 124.204 186.305 127.276 183.611 130.027L180.328 127.488C181.985 124.441 183.462 121.301 184.75 118.082C185.319 116.659 185.722 115.175 185.952 113.661C186.024 113.201 186.003 112.732 185.889 112.281L185.575 111.325C185.449 110.925 185.332 110.541 185.175 110.141C183.986 106.903 182.604 103.738 181.035 100.665C179.464 97.5295 177.783 94.3942 176.094 91.4078L183.242 87.1045Z" fill="#FF8B7B"/>
<path d="M181.113 126.367L177.508 128.279L181.655 133.123C181.655 133.123 184.248 131.375 184.358 128.71L181.113 126.367Z" fill="#FF8B7B"/>
<path d="M172.677 131.266L177.123 134.785L181.679 133.123L177.531 128.279L172.677 131.266Z" fill="#FF8B7B"/>
<path d="M157.547 61.4181C157.461 61.8571 157.154 62.202 156.872 62.1001C156.589 61.9982 156.424 61.6455 156.51 61.2065C156.597 60.7676 156.903 60.4697 157.194 60.5246C157.484 60.5794 157.594 60.987 157.547 61.4181Z" fill="#263238"/>
<path d="M157.154 62.1707C156.362 63.395 155.405 64.5053 154.311 65.4706C154.568 65.7384 154.88 65.9473 155.226 66.0826C155.572 66.218 155.943 66.2766 156.314 66.2544L157.154 62.1707Z" fill="#FF5652"/>
<path d="M155.74 77.5416V72.4075L162.559 73.1913C162.559 73.1913 162.441 77.6121 158.631 78.9055L155.74 77.5416Z" fill="#FF8B7B"/>
<path d="M157.697 68.7078L162.504 70.0873L162.59 73.2305L155.772 72.4075L157.697 68.7078Z" fill="#FF8B7B"/>
<path opacity="0.2" d="M162.504 70.0873L157.704 68.7078L156.762 70.4949C156.813 71.9031 157.254 73.2697 158.036 74.443C158.818 75.6163 159.91 76.5504 161.192 77.1418C162.017 75.9925 162.499 74.6338 162.583 73.2227L162.504 70.0873Z" fill="black"/>
<path d="M159.598 59.3253C159.664 59.3245 159.729 59.2994 159.778 59.2547C159.826 59.2052 159.852 59.1392 159.852 59.0705C159.852 59.0019 159.826 58.9359 159.778 58.8863C159.504 58.5739 159.157 58.3323 158.769 58.1821C158.38 58.032 157.961 57.9778 157.547 58.0241C157.482 58.0383 157.425 58.077 157.388 58.1321C157.351 58.1872 157.336 58.2544 157.347 58.32C157.358 58.3855 157.394 58.4442 157.448 58.484C157.501 58.5238 157.568 58.5416 157.634 58.5336C157.962 58.5063 158.292 58.5558 158.597 58.6783C158.903 58.8008 159.175 58.9928 159.393 59.2391C159.418 59.2681 159.45 59.2909 159.485 59.3059C159.521 59.3208 159.559 59.3275 159.598 59.3253Z" fill="#263238"/>
<path d="M169.637 69.3506C168.851 73.3873 168.364 78.9683 171.208 81.6646C171.208 81.6646 170.1 85.7563 162.567 85.7563C154.311 85.7563 158.6 82.1663 158.6 82.1663C162.025 81.1003 162.001 77.1968 161.216 74.0614L169.637 69.3506Z" fill="#FF8B7B"/>
<path d="M172.74 84.361C173.478 83.3185 173.447 80.0342 172.661 79.462C171.396 78.5214 165.968 78.3097 158.663 79.9871C159.448 83.1225 157.767 84.8313 157.767 84.8313L172.74 84.361Z" fill="#407BFF"/>
<path d="M197.288 270.444C197.065 270.525 196.829 270.561 196.593 270.549C196.357 270.537 196.125 270.477 195.913 270.373C195.832 270.296 195.777 270.196 195.754 270.087C195.732 269.978 195.743 269.864 195.787 269.762C195.813 269.678 195.857 269.6 195.915 269.534C195.973 269.468 196.045 269.414 196.125 269.378C196.871 269.025 198.584 269.723 198.662 269.754C198.686 269.762 198.707 269.778 198.721 269.8C198.735 269.821 198.742 269.846 198.741 269.871C198.739 269.896 198.731 269.92 198.717 269.941C198.704 269.961 198.685 269.978 198.662 269.989C198.222 270.189 197.761 270.342 197.288 270.444ZM196.392 269.566L196.235 269.613C196.188 269.635 196.147 269.667 196.113 269.706C196.079 269.745 196.054 269.791 196.039 269.84C195.968 270.075 196.039 270.146 196.086 270.169C196.384 270.428 197.484 270.169 198.262 269.879C197.669 269.638 197.031 269.531 196.392 269.566Z" fill="#407BFF"/>
<path d="M198.639 269.997H198.568C197.947 269.817 196.612 268.868 196.596 268.241C196.594 268.143 196.625 268.048 196.686 267.971C196.746 267.894 196.831 267.84 196.926 267.818C197.119 267.758 197.327 267.775 197.508 267.865C198.246 268.241 198.717 269.77 198.733 269.832C198.745 269.853 198.751 269.876 198.751 269.899C198.751 269.922 198.745 269.945 198.733 269.966C198.722 269.979 198.707 269.989 198.69 269.995C198.674 270 198.656 270.001 198.639 269.997ZM197.068 268.053H197.005C196.848 268.108 196.848 268.186 196.848 268.218C196.848 268.594 197.743 269.331 198.419 269.636C198.246 269.026 197.896 268.481 197.413 268.069C197.307 268.02 197.186 268.015 197.076 268.053H197.068Z" fill="#407BFF"/>
<path d="M156.495 271.369C155.788 271.369 155.104 271.275 154.876 270.953C154.815 270.872 154.782 270.773 154.782 270.671C154.782 270.569 154.815 270.47 154.876 270.389C154.92 270.311 154.98 270.244 155.052 270.191C155.123 270.139 155.206 270.102 155.293 270.083C156.212 269.832 158.144 270.93 158.223 270.977C158.246 270.989 158.265 271.009 158.276 271.033C158.287 271.057 158.291 271.084 158.286 271.11C158.282 271.136 158.27 271.161 158.252 271.18C158.233 271.2 158.21 271.214 158.184 271.22C157.626 271.318 157.061 271.368 156.495 271.369ZM155.623 270.303C155.54 270.289 155.455 270.289 155.371 270.303C155.318 270.313 155.267 270.334 155.222 270.365C155.178 270.396 155.14 270.436 155.112 270.483C155.018 270.647 155.049 270.726 155.112 270.773C155.364 271.126 156.762 271.133 157.791 270.992C157.121 270.623 156.384 270.388 155.623 270.303Z" fill="#407BFF"/>
<path d="M158.168 271.22H158.113C157.445 270.922 156.125 269.73 156.228 269.111C156.228 268.962 156.353 268.782 156.715 268.743C156.844 268.729 156.975 268.742 157.1 268.781C157.224 268.82 157.339 268.884 157.437 268.97C157.944 269.568 158.244 270.313 158.293 271.094C158.296 271.117 158.292 271.14 158.282 271.161C158.273 271.181 158.258 271.199 158.238 271.212C158.216 271.222 158.192 271.225 158.168 271.22ZM156.817 268.954H156.762C156.526 268.954 156.51 269.072 156.51 269.103C156.447 269.48 157.343 270.412 158.026 270.82C157.963 270.192 157.708 269.598 157.296 269.119C157.161 269.008 156.991 268.95 156.817 268.954Z" fill="#407BFF"/>
<path d="M164.24 271.086H158.718L158.168 258.318H163.69L164.24 271.086Z" fill="#FF8B7B"/>
<path d="M204.797 268.539L199.393 269.699L193.973 257.808L199.377 256.648L204.797 268.539Z" fill="#FF8B7B"/>
<path d="M198.874 269.158L204.947 267.849C205.054 267.826 205.166 267.84 205.263 267.89C205.361 267.94 205.438 268.023 205.481 268.123L207.586 272.677C207.642 272.788 207.671 272.91 207.671 273.034C207.67 273.158 207.641 273.28 207.584 273.39C207.527 273.5 207.445 273.595 207.344 273.667C207.244 273.74 207.127 273.787 207.005 273.806C204.884 274.229 203.863 274.331 201.152 274.904C199.519 275.256 195.811 276.158 193.541 276.652C191.27 277.145 190.493 274.966 191.38 274.567C195.308 272.756 196.997 271.165 198.073 269.683C198.266 269.415 198.551 269.228 198.874 269.158Z" fill="#263238"/>
<path d="M158.749 270.451H164.79C164.898 270.452 165.003 270.49 165.088 270.559C165.172 270.627 165.23 270.722 165.253 270.828L166.345 275.727C166.376 275.845 166.378 275.968 166.353 276.087C166.327 276.206 166.274 276.318 166.198 276.413C166.122 276.508 166.025 276.584 165.914 276.635C165.803 276.686 165.682 276.71 165.56 276.706C163.384 276.706 160.242 276.542 157.5 276.542C154.303 276.542 151.546 276.714 147.791 276.714C145.521 276.714 144.892 274.433 145.843 274.222C150.163 273.281 153.698 273.179 157.429 270.883C157.821 270.62 158.278 270.471 158.749 270.451Z" fill="#263238"/>
<path d="M181.113 82.9108C186.298 84.0943 190.54 97.2863 190.54 97.2863L180.139 105.195C177.456 102.329 175.562 98.8185 174.64 95.0053C172.842 88.0919 175.787 81.6958 181.113 82.9108Z" fill="#407BFF"/>
<path opacity="0.4" d="M181.113 82.9108C186.298 84.0943 190.54 97.2863 190.54 97.2863L180.139 105.195C177.456 102.329 175.562 98.8185 174.64 95.0053C172.842 88.0919 175.787 81.6958 181.113 82.9108Z" fill="black"/>
<path d="M153.855 98.6504C152.559 100.046 151.271 101.284 149.928 102.57C149.26 103.204 148.584 103.824 147.893 104.435L146.848 105.344L146.589 105.572C146.456 105.681 146.306 105.815 146.141 105.94C145.674 106.301 145.161 106.602 144.617 106.834C144.013 107.088 143.364 107.221 142.709 107.226C142.146 107.228 141.587 107.13 141.059 106.935C140.473 106.713 139.939 106.374 139.488 105.94C138.915 105.376 138.491 104.678 138.255 103.91C138.141 103.529 138.067 103.138 138.035 102.742C137.989 102.275 137.989 101.806 138.035 101.339C138.035 100.963 138.121 100.641 138.176 100.328C138.394 99.2589 138.702 98.2102 139.095 97.1924C139.45 96.2282 139.856 95.2836 140.313 94.3628C140.808 93.3673 141.295 92.6383 141.774 91.8075C143.718 88.6247 145.939 85.6189 148.412 82.8247C150.857 80.0455 153.552 77.4953 156.463 75.2058L159.354 78.1765C157.327 80.8886 155.324 83.7888 153.478 86.6577C151.643 89.5023 149.967 92.4462 148.459 95.4758C148.113 96.2126 147.673 97.0435 147.461 97.6392C147.249 98.2349 146.935 99.0344 146.723 99.7477C146.53 100.398 146.384 101.06 146.283 101.731C146.274 101.835 146.274 101.94 146.283 102.044C146.283 102.099 146.283 102.138 146.283 101.966C146.27 101.793 146.235 101.622 146.181 101.456C146.011 100.901 145.7 100.398 145.277 99.9985C144.574 99.324 143.637 98.9451 142.661 98.9404C142.225 98.9366 141.793 99.0192 141.389 99.1834C141.004 99.348 140.996 99.395 141.004 99.3715L141.302 99.0971L142.245 98.2349L144.122 96.4791C145.371 95.3112 146.62 94.0649 147.799 92.9127L153.855 98.6504Z" fill="#FF8B7B"/>
<path opacity="0.2" d="M176.651 92.5913C179.464 95.3661 180.375 100.43 180.579 104.819L180.124 105.172C177.435 102.309 175.54 98.7975 174.625 94.982C174.523 94.5666 174.428 94.1982 174.358 93.7514L176.651 92.5913Z" fill="black"/>
<path d="M148.364 88.4369C147.233 94.394 146.526 106.622 149.802 130.85H179.354C179.558 126.32 176.707 104.239 181.082 82.9109C177.816 82.2797 174.513 81.8634 171.192 81.6645C167.006 81.4211 162.809 81.4211 158.623 81.6645C157.233 81.79 155.874 81.9859 154.696 82.2054C153.13 82.4768 151.684 83.219 150.553 84.3326C149.421 85.4463 148.658 86.8783 148.364 88.4369Z" fill="#407BFF"/>
<path opacity="0.4" d="M148.364 88.4369C147.233 94.394 146.526 106.622 149.802 130.85H179.354C179.558 126.32 176.707 104.239 181.082 82.9109C177.816 82.2797 174.513 81.8634 171.192 81.6645C167.006 81.4211 162.809 81.4211 158.623 81.6645C157.233 81.79 155.874 81.9859 154.696 82.2054C153.13 82.4768 151.684 83.219 150.553 84.3326C149.421 85.4463 148.658 86.8783 148.364 88.4369Z" fill="black"/>
<path opacity="0.2" d="M152.881 97.2393L147.547 95.9617C147.375 99.1911 147.367 103.196 147.602 108.135C150.061 105.344 153.203 100.994 152.881 97.2393Z" fill="black"/>
<path opacity="0.2" d="M158.168 258.325L158.451 264.902H163.981L163.698 258.325H158.168Z" fill="black"/>
<path opacity="0.2" d="M199.377 256.648L193.973 257.816L196.769 263.946L202.174 262.778L199.377 256.648Z" fill="black"/>
<path d="M172.26 63.4482C170.846 68.7312 170.281 71.8979 167.013 74.1005C162.096 77.4005 155.976 73.6067 155.78 68.0101C155.607 62.9622 157.964 55.1709 163.635 54.1049C164.888 53.8621 166.182 53.9433 167.394 54.3405C168.606 54.7378 169.697 55.438 170.561 56.3745C171.426 57.3109 172.036 58.4526 172.333 59.6907C172.63 60.9289 172.605 62.2224 172.26 63.4482Z" fill="#FF8B7B"/>
<path d="M159.904 63.652C159.637 62.9466 158.411 57.4833 159.566 56.0645C160.721 54.6458 173.792 55.6648 175.725 57.5616C178.929 60.697 176.706 63.5266 173.195 67.1558C170.556 69.8835 170.454 72.9562 169.118 73.4265C166.762 74.2103 163.164 73.4735 162.441 70.9809C161.718 68.4883 159.904 63.652 159.904 63.652Z" fill="#263238"/>
<path d="M174.099 51.3536C169.48 49.3862 160.807 51.5574 156.133 50.4365C156.072 52.1729 156.643 53.8727 157.74 55.2216C158.838 56.5704 160.388 57.4768 162.104 57.7732C165.987 58.5111 169.933 58.8733 173.887 58.8549C179.032 58.6511 178.026 53.0232 174.099 51.3536Z" fill="#263238"/>
<path d="M174.829 57.7341C176.515 57.8998 178.212 57.573 179.715 56.7935C180.579 58.8863 175.827 59.4507 174.829 57.7341Z" fill="#263238"/>
<path d="M162.378 63.8714C162.272 65.2284 161.72 66.5125 160.807 67.5241C159.598 68.8488 158.341 68.0257 158.129 66.411C157.94 64.9609 158.333 62.4918 159.802 61.7942C161.271 61.0966 162.481 62.2332 162.378 63.8714Z" fill="#FF8B7B"/>
<path d="M160.289 130.85C160.289 130.85 166.573 172.982 169.998 188.768C173.769 206.052 193.98 263.232 193.98 263.232L203.894 261.116C203.894 261.116 189.754 214.509 186.612 190.344C184.185 171.782 179.393 130.858 179.393 130.858L160.289 130.85Z" fill="#407BFF"/>
<path d="M191.616 259.948C191.577 259.948 193.462 263.515 193.462 263.515L204.585 261.116L203.651 257.785L191.616 259.948Z" fill="#263238"/>
<path opacity="0.3" d="M164.248 145.892C171.498 147.311 170.736 174.29 169.864 188.164C167.767 178.359 164.711 159.484 162.622 146.088C163.125 145.839 163.699 145.77 164.248 145.892Z" fill="black"/>
<path d="M149.802 130.85C149.802 130.85 149.016 172.072 149.645 188.854C150.273 206.341 156.393 263.601 156.393 263.601H165.748C165.748 263.601 166.094 207.36 166.534 190.187C166.989 171.461 169.252 130.819 169.252 130.819L149.802 130.85Z" fill="#407BFF"/>
<path d="M154.594 259.909C154.546 259.909 155.12 263.828 155.12 263.828H166.502L166.809 260.364L154.594 259.909Z" fill="#263238"/>
<path d="M159.943 90.2398C162.59 97.3649 147.029 105.752 147.029 105.752L140.289 97.1297C140.289 97.1297 144.782 88.2018 150.305 84.1729C157.115 79.1955 157.924 84.8235 159.943 90.2398Z" fill="#407BFF"/>
<path opacity="0.4" d="M159.943 90.2398C162.59 97.3649 147.029 105.752 147.029 105.752L140.289 97.1297C140.289 97.1297 144.782 88.2018 150.305 84.1729C157.115 79.1955 157.924 84.8235 159.943 90.2398Z" fill="black"/>
<path d="M220.917 36.1551C236.574 36.1551 249.267 28.0836 249.267 18.1269C249.267 8.17015 236.574 0.0986328 220.917 0.0986328C205.259 0.0986328 192.567 8.17015 192.567 18.1269C192.567 28.0836 205.259 36.1551 220.917 36.1551Z" fill="#407BFF"/>
<path d="M210.681 27.2036C208.813 27.197 207.008 26.533 205.582 25.3286C204.157 24.1242 203.203 22.4566 202.889 20.6194C202.567 18.6253 203.013 16.5839 204.136 14.9037C205.259 13.2236 206.977 12.0286 208.945 11.5582C210.555 11.1807 212.244 11.3199 213.77 11.9561C215.296 12.5923 216.582 13.6929 217.445 15.1012L235.645 11.3466C236.346 11.196 237.077 11.314 237.694 11.6771C238.312 12.0401 238.769 12.6218 238.976 13.3062C239.071 13.6652 239.092 14.0399 239.038 14.4074C238.983 14.7748 238.854 15.1273 238.659 15.4434C238.463 15.7595 238.205 16.0326 237.901 16.246C237.596 16.4593 237.251 16.6085 236.887 16.6845L236.407 16.7786C236.339 16.7943 236.275 16.8244 236.219 16.8667C236.163 16.9091 236.117 16.9628 236.084 17.0244C236.05 17.0859 236.03 17.1538 236.025 17.2236C236.02 17.2933 236.03 17.3634 236.054 17.4291L236.376 18.26C236.485 18.528 236.496 18.8257 236.407 19.1009C236.318 19.3761 236.134 19.6112 235.889 19.765C235.697 19.8882 235.535 20.0516 235.413 20.2438C235.29 20.436 235.212 20.6524 235.182 20.878C235.162 21.1362 235.059 21.3811 234.89 21.5771C234.72 21.7731 234.492 21.9099 234.239 21.9676L233.862 22.0381C233.608 22.088 233.345 22.0547 233.111 21.9431C232.878 21.8315 232.686 21.6476 232.566 21.4189C232.407 21.1412 232.163 20.9209 231.871 20.7892C231.579 20.6575 231.252 20.6212 230.938 20.6855C230.624 20.7497 230.338 20.9113 230.121 21.1471C229.904 21.3829 229.768 21.681 229.73 21.9989C229.708 22.2577 229.604 22.5028 229.434 22.6987C229.263 22.8946 229.034 23.0311 228.78 23.0884L228.418 23.159C228.163 23.2081 227.899 23.1745 227.665 23.0631C227.43 22.9517 227.237 22.7683 227.114 22.5398C227 22.3429 226.842 22.1743 226.653 22.0468C226.464 21.9192 226.248 21.8358 226.023 21.803C225.736 21.7556 225.475 21.6099 225.284 21.391C225.093 21.1721 224.985 20.8937 224.978 20.6037V19.7179C224.976 19.6475 224.958 19.5784 224.925 19.5159C224.893 19.4534 224.846 19.3992 224.789 19.3574C224.735 19.3114 224.67 19.279 224.6 19.2626C224.531 19.2463 224.458 19.2465 224.389 19.2633L218.552 20.4783C218.311 22.087 217.578 23.5821 216.453 24.7593C215.329 25.9365 213.867 26.7381 212.268 27.0547C211.746 27.1595 211.214 27.2094 210.681 27.2036ZM209.11 12.3107C207.337 12.736 205.79 13.8137 204.78 15.3281C203.769 16.8425 203.368 18.6819 203.658 20.4783C203.967 22.1556 204.866 23.6675 206.194 24.7405C207.522 25.8136 209.192 26.3769 210.9 26.3286C212.608 26.2803 214.243 25.6236 215.508 24.4772C216.773 23.3309 217.586 21.7706 217.798 20.0785V19.7963L224.145 18.4873C224.326 18.4478 224.514 18.4492 224.695 18.4912C224.876 18.5332 225.045 18.6149 225.19 18.7303C225.335 18.8438 225.454 18.9873 225.538 19.1511C225.622 19.3149 225.67 19.4949 225.677 19.6788V20.5645C225.678 20.6718 225.717 20.7755 225.785 20.8582C225.854 20.9409 225.949 20.9977 226.054 21.0191C226.397 21.0682 226.725 21.1946 227.012 21.3888C227.299 21.583 227.539 21.8399 227.712 22.14C227.753 22.2246 227.82 22.2942 227.903 22.3391C227.986 22.384 228.081 22.4021 228.175 22.3908L228.536 22.3124C228.628 22.2863 228.709 22.2322 228.768 22.1577C228.827 22.0832 228.862 21.992 228.866 21.897C228.925 21.4179 229.133 20.9693 229.461 20.6145C229.789 20.2597 230.221 20.0167 230.694 19.9197C231.168 19.8227 231.661 19.8766 232.102 20.0739C232.544 20.2712 232.912 20.6018 233.155 21.0191C233.196 21.1038 233.263 21.1732 233.347 21.2169C233.43 21.2606 233.526 21.2765 233.619 21.2621L233.996 21.1916C234.087 21.1651 234.167 21.1107 234.224 21.0361C234.282 20.9614 234.315 20.8704 234.318 20.7761C234.357 20.433 234.473 20.1032 234.658 19.8113C234.843 19.5195 235.092 19.2732 235.386 19.0909C235.476 19.0329 235.541 18.945 235.572 18.843C235.602 18.741 235.595 18.6315 235.551 18.5344L235.237 17.7035C235.17 17.5317 235.142 17.3475 235.154 17.1637C235.166 16.9798 235.218 16.8008 235.306 16.639C235.394 16.4772 235.517 16.3364 235.665 16.2265C235.813 16.1166 235.983 16.0402 236.164 16.0026L236.643 15.9085C236.903 15.8535 237.149 15.7465 237.367 15.5938C237.584 15.4411 237.768 15.246 237.907 15.0203C238.047 14.7946 238.139 14.543 238.178 14.2806C238.218 14.0183 238.203 13.7508 238.136 13.4943C237.982 13.0027 237.649 12.5868 237.202 12.3296C236.755 12.0724 236.227 11.9929 235.724 12.1069L216.973 15.9712L216.832 15.7204C216.073 14.3912 214.905 13.3416 213.502 12.7273C212.098 12.1131 210.533 11.967 209.039 12.3107H209.11ZM210.681 24.2956C209.396 24.2918 208.162 23.796 207.233 22.9103C206.304 22.0247 205.752 20.817 205.69 19.5366C205.628 18.2561 206.061 17.0008 206.899 16.0298C207.738 15.0587 208.919 14.4462 210.197 14.3186C211.475 14.1911 212.754 14.5582 213.769 15.3443C214.784 16.1304 215.457 17.2753 215.65 18.5427C215.844 19.81 215.542 21.103 214.807 22.1546C214.072 23.2062 212.961 23.9362 211.702 24.1937C211.372 24.264 211.035 24.3008 210.697 24.3034L210.681 24.2956ZM210.681 15.0384C210.388 15.0401 210.096 15.069 209.809 15.1247C208.742 15.3868 207.818 16.0511 207.231 16.9783C206.645 17.9054 206.441 19.0233 206.662 20.0973C206.884 21.1713 207.514 22.118 208.42 22.7385C209.326 23.359 210.438 23.6053 211.522 23.4255C212.068 23.3134 212.587 23.0949 213.049 22.7824C213.511 22.4699 213.906 22.0695 214.213 21.6042C214.519 21.1389 214.731 20.6179 214.835 20.071C214.939 19.524 214.935 18.9619 214.821 18.4168C214.624 17.4651 214.106 16.6098 213.352 15.9946C212.598 15.3795 211.655 15.0418 210.681 15.0384Z" fill="white"/>
<path opacity="0.6" d="M197.837 46.7212C202.983 46.7212 207.154 44.0682 207.154 40.7954C207.154 37.5227 202.983 34.8696 197.837 34.8696C192.692 34.8696 188.521 37.5227 188.521 40.7954C188.521 44.0682 192.692 46.7212 197.837 46.7212Z" fill="#407BFF"/>
<path opacity="0.3" d="M183.022 49.151C185.135 49.151 186.848 48.0631 186.848 46.7212C186.848 45.3792 185.135 44.2913 183.022 44.2913C180.91 44.2913 179.197 45.3792 179.197 46.7212C179.197 48.0631 180.91 49.151 183.022 49.151Z" fill="#407BFF"/>
</svg>
