<svg width="29" height="24" viewBox="0 0 29 24" fill="none" xmlns="http://www.w3.org/2000/svg">
<path d="M14.0808 14.9918C12.1367 14.9918 10.5606 16.3349 10.5606 17.9918V23.9918H17.601V17.9918C17.601 16.3349 16.0249 14.9918 14.0808 14.9918Z" fill="black"/>
<path d="M19.9478 17.9922V23.9922H24.6414C26.5855 23.9922 28.1616 22.649 28.1616 20.9922V11.8712C28.1619 11.3517 27.925 10.8525 27.5009 10.4792L17.5294 1.29218C15.77 -0.330162 12.8005 -0.429771 10.8968 1.06967C10.8064 1.14092 10.7193 1.21512 10.6357 1.29218L0.681763 10.4762C0.244929 10.851 -0.000164926 11.3579 8.32653e-08 11.8862V20.9922C8.32653e-08 22.649 1.57606 23.9922 3.5202 23.9922H8.21378V17.9922C8.23572 15.2654 10.8191 13.0386 13.9381 12.9745C17.1615 12.9082 19.9232 15.1729 19.9478 17.9922Z" fill="white"/>
<path d="M14.0808 14.9918C12.1367 14.9918 10.5606 16.3349 10.5606 17.9918V23.9918H17.601V17.9918C17.601 16.3349 16.0249 14.9918 14.0808 14.9918Z" fill="white"/>
</svg>
