<svg width="25" height="25" viewBox="0 0 25 25" fill="none" xmlns="http://www.w3.org/2000/svg">
<g clip-path="url(#clip0_1888_143)">
<path d="M12.0566 15.0352C10.3998 15.0352 9.05664 16.3783 9.05664 18.0352V24.0352H15.0566V18.0352C15.0566 16.3783 13.7135 15.0352 12.0566 15.0352Z" fill="black"/>
<path d="M17.0567 18.0356V24.0356H21.0566C22.7135 24.0356 24.0566 22.6924 24.0566 21.0356V11.9146C24.0569 11.3951 23.855 10.8959 23.4936 10.5226L14.9957 1.33558C13.4962 -0.286766 10.9655 -0.386375 9.34319 1.11306C9.26613 1.18431 9.19187 1.25852 9.12067 1.33558L0.637656 10.5196C0.265375 10.8944 0.0565001 11.4013 0.0566407 11.9296V21.0356C0.0566407 22.6924 1.3998 24.0356 3.05664 24.0356H7.05662V18.0356C7.07533 15.3088 9.27691 13.082 11.935 13.0179C14.6821 12.9516 17.0357 15.2163 17.0567 18.0356Z" fill="white"/>
<path d="M12.0566 15.0352C10.3998 15.0352 9.05664 16.3783 9.05664 18.0352V24.0352H15.0566V18.0352C15.0566 16.3783 13.7135 15.0352 12.0566 15.0352Z" fill="white"/>
</g>
<defs>
<clipPath id="clip0_1888_143">
<rect width="24" height="24" fill="white" transform="translate(0.0566406 0.043457)"/>
</clipPath>
</defs>
</svg>
