<svg width="14" height="14" viewBox="0 0 14 14" fill="none" xmlns="http://www.w3.org/2000/svg">
<path d="M10.1946 0.500109C10.9272 0.493605 11.6492 0.780459 12.2375 1.32643C12.0138 1.13575 11.7684 0.976047 11.506 0.852498L11.2958 1.29882L11.506 0.852498C11.0899 0.65659 10.6415 0.556486 10.1871 0.560614C9.50236 0.566835 8.85038 0.808153 8.30633 1.23218C8.86035 0.759426 9.52158 0.506083 10.1946 0.500109ZM3.78196 0.579056C3.09806 0.579056 2.44506 0.813878 1.89834 1.23212C2.10261 1.0618 2.32195 0.920133 2.55177 0.809459C2.94465 0.620256 3.36241 0.524318 3.78196 0.524318C4.2015 0.524318 4.61926 0.620257 5.01215 0.809459C5.24196 0.920133 5.46131 1.0618 5.66557 1.23212C5.11885 0.813878 4.46586 0.579056 3.78196 0.579056Z" fill="#C4C4C4" stroke="#A8A8A8"/>
</svg>
