<svg width="22" height="22" viewBox="0 0 22 22" fill="none" xmlns="http://www.w3.org/2000/svg">
<path fill-rule="evenodd" clip-rule="evenodd" d="M11.6875 0C14.3454 0 16.5 1.81443 16.5 4.05263L16.4999 5.7893L17.875 5.78947C20.1532 5.78947 22 7.3447 22 9.26316V18.5263C22 20.4448 20.1532 22 17.875 22H4.125C1.84683 22 0 20.4448 0 18.5263V9.26316C0 7.3447 1.84683 5.78947 4.125 5.78947L5.49997 5.7893L5.5 4.05263C5.5 1.81443 7.65463 0 10.3125 0H11.6875ZM17.875 8.10526H4.125C3.36561 8.10526 2.75 8.62367 2.75 9.26316V18.5263C2.75 19.1658 3.36561 19.6842 4.125 19.6842H17.875C18.6344 19.6842 19.25 19.1658 19.25 18.5263V9.26316C19.25 8.62367 18.6344 8.10526 17.875 8.10526ZM11 10.4211C12.5188 10.4211 13.75 11.4579 13.75 12.7368C13.75 13.594 13.197 14.3423 12.3751 14.7428L12.375 16.2105C12.375 16.85 11.7594 17.3684 11 17.3684C10.2406 17.3684 9.625 16.85 9.625 16.2105L9.62489 14.7428C8.80297 14.3423 8.25 13.594 8.25 12.7368C8.25 11.4579 9.48122 10.4211 11 10.4211ZM11.6875 2.31579H10.3125C9.17341 2.31579 8.25 3.0934 8.25 4.05263V5.78947H13.75V4.05263C13.75 3.0934 12.8266 2.31579 11.6875 2.31579Z" fill="#C4C4C4"/>
</svg>
