<svg width="161" height="127" viewBox="0 0 161 127" fill="none" xmlns="http://www.w3.org/2000/svg">
<path d="M71.863 127C54.524 127 38.6301 119.665 26.2715 107.48C30.2742 109.333 34.4893 110.645 38.8398 111.405C41.8391 111.927 44.8998 112.195 47.9704 112.203C57.2055 112.236 66.6752 110 75.659 105.735C99.3911 94.4686 120.084 69.1786 127.16 32.5479L110.594 29.1869L135.5 0L160.404 39.2917L143.035 35.7677C143.224 38.0374 143.336 40.3316 143.336 42.6574C143.336 89.2246 111.22 127 71.863 127ZM48.018 107.238C45.3629 107.227 42.746 106.998 40.1858 106.551C29.9763 104.768 20.4889 99.5081 12.9261 90.0903C5.1398 76.574 0.584229 60.2438 0.584229 42.6582C0.584229 38.4073 1.03657 34.3128 1.55023 30.2297C6.37084 66.1623 32.6116 93.6941 64.3294 93.6941C75.9606 93.6941 86.8382 89.977 96.1886 83.4986C88.9484 91.4691 80.8039 97.5017 72.4447 101.47C64.2902 105.341 55.9832 107.27 48.018 107.238Z" fill="url(#paint0_linear_1567_1950)"/>
<path d="M85.4886 69.2525C85.4886 69.2525 94.7639 69.966 99.7583 64.2581C104.753 58.5503 104.753 41.4267 104.753 41.4267C104.753 41.4267 87.6291 40.7132 81.9212 44.9941C76.2134 49.275 77.6403 61.4042 77.6403 61.4042" stroke="url(#paint1_linear_1567_1950)" stroke-width="2" stroke-linecap="round" stroke-linejoin="round"/>
<path d="M76.2134 69.9659C76.2134 69.9659 84.1901 63.9377 89.0561 58.5501M89.0561 58.5501C93.922 53.1626 96.1909 47.8479 96.1909 47.8479M89.0561 58.5501L88.3426 49.2749M89.0561 58.5501L96.1909 57.8367" stroke="url(#paint2_linear_1567_1950)" stroke-width="2" stroke-linecap="round" stroke-linejoin="round"/>
<path d="M65.5112 69.2525C65.5112 69.2525 56.236 69.966 51.2416 64.2581C46.2472 58.5503 46.2472 41.4267 46.2472 41.4267C46.2472 41.4267 63.3708 40.7132 69.0787 44.9941C74.7865 49.275 73.3596 61.4042 73.3596 61.4042" stroke="url(#paint3_linear_1567_1950)" stroke-width="2" stroke-linecap="round" stroke-linejoin="round"/>
<path d="M74.7865 69.9659C74.7865 69.9659 66.8097 63.9377 61.9438 58.5501M61.9438 58.5501C57.0778 53.1626 54.809 47.8479 54.809 47.8479M61.9438 58.5501L62.6573 49.2749M61.9438 58.5501L54.809 57.8367" stroke="url(#paint4_linear_1567_1950)" stroke-width="2" stroke-linecap="round" stroke-linejoin="round"/>
<defs>
<linearGradient id="paint0_linear_1567_1950" x1="80.4943" y1="0" x2="80.4943" y2="127" gradientUnits="userSpaceOnUse">
<stop offset="0.544" stop-color="white"/>
<stop offset="0.864" stop-color="#64B5F6"/>
</linearGradient>
<linearGradient id="paint1_linear_1567_1950" x1="91.1172" y1="41.3821" x2="91.1172" y2="69.2811" gradientUnits="userSpaceOnUse">
<stop offset="0.0639996" stop-color="white"/>
<stop offset="1" stop-color="#64B5F6"/>
</linearGradient>
<linearGradient id="paint2_linear_1567_1950" x1="86.2022" y1="47.8479" x2="86.2022" y2="69.9659" gradientUnits="userSpaceOnUse">
<stop offset="0.0639996" stop-color="white"/>
<stop offset="1" stop-color="#64B5F6"/>
</linearGradient>
<linearGradient id="paint3_linear_1567_1950" x1="59.8826" y1="41.3821" x2="59.8826" y2="69.2811" gradientUnits="userSpaceOnUse">
<stop stop-color="white"/>
<stop offset="1" stop-color="#64B5F6"/>
</linearGradient>
<linearGradient id="paint4_linear_1567_1950" x1="64.7977" y1="47.8479" x2="64.7977" y2="69.9659" gradientUnits="userSpaceOnUse">
<stop stop-color="white"/>
<stop offset="1" stop-color="#64B5F6"/>
</linearGradient>
</defs>
</svg>
