<svg width="33" height="25" viewBox="0 0 33 25" fill="none" xmlns="http://www.w3.org/2000/svg">
<path fill-rule="evenodd" clip-rule="evenodd" d="M26.1653 0.546875C29.7117 0.546875 32.5866 3.4246 32.5866 6.97446V18.2227C32.5866 21.7726 29.7117 24.6503 26.1653 24.6503H6.90131C3.35491 24.6503 0.47998 21.7726 0.47998 18.2227V6.97446C0.47998 3.4246 3.35491 0.546875 6.90131 0.546875H26.1653ZM26.6611 8.43979C26.1396 7.72206 25.1356 7.56338 24.4186 8.08536L17.0055 13.4819C16.7241 13.6868 16.3428 13.6868 16.0613 13.4819L8.6483 8.08536C7.93128 7.56338 6.92728 7.72206 6.4058 8.43979C5.88433 9.15751 6.04286 10.1625 6.75988 10.6845L14.1729 16.081C15.5802 17.1055 17.4867 17.1055 18.894 16.081L26.307 10.6845C27.024 10.1625 27.1825 9.15751 26.6611 8.43979Z" fill="#233A66"/>
</svg>
