<svg width="33" height="29" viewBox="0 0 33 29" fill="none" xmlns="http://www.w3.org/2000/svg">
<path fill-rule="evenodd" clip-rule="evenodd" d="M27.7706 0.960449C30.4305 0.960449 32.5866 3.13665 32.5866 5.82113V18.7829C32.5866 21.4674 30.4305 23.6436 27.7706 23.6436H15.9982C15.6509 23.6436 15.3129 23.7573 15.035 23.9677L9.46985 28.1803C8.41155 28.9813 6.90131 28.2192 6.90131 26.8841V23.6436H5.29598C2.63618 23.6436 0.47998 21.4674 0.47998 18.7829V5.82113C0.47998 3.13665 2.63618 0.960449 5.29598 0.960449H27.7706ZM10.112 10.6818C10.9986 10.6818 11.7173 11.4072 11.7173 12.302C11.7173 13.1969 10.9986 13.9223 10.112 13.9223C9.22538 13.9223 8.50665 13.1969 8.50665 12.302C8.50665 11.4072 9.22538 10.6818 10.112 10.6818ZM16.5333 10.6818C17.4199 10.6818 18.1386 11.4072 18.1386 12.302C18.1386 13.1969 17.4199 13.9223 16.5333 13.9223C15.6467 13.9223 14.928 13.1969 14.928 12.302C14.928 11.4072 15.6467 10.6818 16.5333 10.6818ZM22.9546 10.6818C23.8412 10.6818 24.56 11.4072 24.56 12.302C24.56 13.1969 23.8412 13.9223 22.9546 13.9223C22.068 13.9223 21.3493 13.1969 21.3493 12.302C21.3493 11.4072 22.068 10.6818 22.9546 10.6818Z" fill="#233A66"/>
</svg>
