<svg width="211" height="184" viewBox="0 0 211 184" fill="none" xmlns="http://www.w3.org/2000/svg">
<circle cx="105" cy="87" r="62" fill="#233A66"/>
<path fill-rule="evenodd" clip-rule="evenodd" d="M123.651 74.4342L106.067 67.1371C105.626 66.9543 105.131 66.9543 104.691 67.1371L87.1063 74.4342C86.4366 74.7122 86 75.3657 86 76.0905V84.9612C86 97.1755 93.3862 108.163 104.701 112.778C105.135 112.956 105.622 112.956 106.057 112.778C117.371 108.163 124.757 97.1756 124.757 84.9612V76.0905C124.757 75.3657 124.321 74.7122 123.651 74.4342ZM104.338 92.4513L113.403 83.3901C114.227 82.5669 115.563 82.5668 116.386 83.3901C117.21 84.2134 117.21 85.5482 116.386 86.3715L105.829 96.9234C105.005 97.7469 103.67 97.7466 102.846 96.9234L96.9514 91.0317C96.1276 90.2084 96.1276 88.8736 96.9514 88.0503C97.7752 87.2271 99.1106 87.227 99.9343 88.0503L104.338 92.4513Z" fill="white"/>
<circle cx="202" cy="35" r="9" fill="#233A66"/>
<circle cx="58" cy="175" r="9" fill="#233A66"/>
<circle cx="169.5" cy="153.5" r="4.5" fill="#233A66"/>
<circle cx="12.5" cy="94.5" r="4.5" fill="#233A66"/>
<circle cx="9" cy="9" r="9" fill="#233A66"/>
</svg>
