<svg width="24" height="24" viewBox="0 0 24 24" fill="none" xmlns="http://www.w3.org/2000/svg">
<circle cx="12" cy="12" r="11" stroke="#233A66" stroke-width="2"/>
<path d="M8.94025 16.5C8.84426 16.5 8.7399 16.4633 8.64517 16.3581L8.27591 16.6905L8.64517 16.3581C8.45161 16.1431 8.45161 15.7612 8.64517 15.5462L15.7647 7.63842L15.4047 7.3143L15.7647 7.63842C15.9308 7.45386 16.1887 7.45386 16.3548 7.63842C16.5484 7.85342 16.5484 8.2353 16.3548 8.45029L9.23533 16.3581L9.22961 16.3644L9.22412 16.371C9.15248 16.4562 9.04692 16.5 8.94025 16.5Z" fill="black" stroke="#233A66"/>
<path d="M16.0597 16.5C15.9638 16.5 15.8594 16.4633 15.7647 16.3581L8.64517 8.45029C8.45161 8.2353 8.45161 7.85342 8.64517 7.63842C8.81134 7.45386 9.06916 7.45386 9.23533 7.63842L16.3548 15.5462C16.5484 15.7612 16.5484 16.1431 16.3548 16.3581C16.2601 16.4633 16.1557 16.5 16.0597 16.5Z" fill="black" stroke="#233A66"/>
</svg>
